<svg width="75" height="22" viewBox="0 0 75 22" fill="none" xmlns="http://www.w3.org/2000/svg">
<path d="M9.21472 9.37321C9.73232 9.64326 10.1374 10.0146 10.43 10.4872C10.7225 10.9598 10.8688 11.5055 10.8688 12.1244C10.8688 13.092 10.5256 13.8966 9.83922 14.5379C9.15284 15.1793 8.31455 15.5 7.32437 15.5H2.2609V3.68526H6.95305C7.92073 3.68526 8.73651 4.00032 9.40038 4.63044C10.0755 5.2493 10.4131 6.0257 10.4131 6.95963C10.4131 7.98357 10.0136 8.7881 9.21472 9.37321ZM6.95305 5.5081H4.2019V8.61369H6.95305C7.38063 8.61369 7.74069 8.46741 8.03325 8.17486C8.32581 7.87105 8.47208 7.49973 8.47208 7.0609C8.47208 6.62206 8.32581 6.25637 8.03325 5.96381C7.74069 5.66001 7.38063 5.5081 6.95305 5.5081ZM7.32437 13.6772C7.77445 13.6772 8.1514 13.5196 8.45521 13.2046C8.77027 12.8783 8.9278 12.4844 8.9278 12.0231C8.9278 11.5618 8.77027 11.1736 8.45521 10.8585C8.1514 10.5322 7.77445 10.369 7.32437 10.369H4.2019V13.6772H7.32437ZM19.2106 7.0609H21.0334V15.5H19.2106V14.2848C18.5242 15.2412 17.5396 15.7194 16.2569 15.7194C15.0979 15.7194 14.1077 15.2918 13.2863 14.4367C12.4649 13.5703 12.0542 12.5182 12.0542 11.2804C12.0542 10.0315 12.4649 8.97939 13.2863 8.12422C14.1077 7.26906 15.0979 6.84148 16.2569 6.84148C17.5396 6.84148 18.5242 7.31407 19.2106 8.25925V7.0609ZM14.6366 13.2214C15.1429 13.7278 15.7787 13.981 16.5438 13.981C17.309 13.981 17.9447 13.7278 18.4511 13.2214C18.9574 12.7038 19.2106 12.0568 19.2106 11.2804C19.2106 10.5041 18.9574 9.86268 18.4511 9.35633C17.9447 8.83873 17.309 8.57994 16.5438 8.57994C15.7787 8.57994 15.1429 8.83873 14.6366 9.35633C14.1302 9.86268 13.8771 10.5041 13.8771 11.2804C13.8771 12.0568 14.1302 12.7038 14.6366 13.2214ZM27.1414 15.7194C25.8699 15.7194 24.8065 15.2918 23.9514 14.4367C23.1075 13.5815 22.6855 12.5294 22.6855 11.2804C22.6855 10.0202 23.1075 8.96813 23.9514 8.12422C24.8065 7.26906 25.8699 6.84148 27.1414 6.84148C27.9628 6.84148 28.711 7.03839 29.3862 7.43222C30.0613 7.82604 30.5676 8.35489 30.9052 9.01877L29.3355 9.93019C29.1442 9.52512 28.8517 9.21006 28.4579 8.98501C28.0753 8.74872 27.6308 8.63057 27.1245 8.63057C26.3818 8.63057 25.7573 8.88374 25.251 9.39009C24.7559 9.89644 24.5084 10.5266 24.5084 11.2804C24.5084 12.0343 24.7559 12.6645 25.251 13.1708C25.7573 13.6772 26.3818 13.9303 27.1245 13.9303C27.6196 13.9303 28.064 13.8122 28.4579 13.5759C28.8629 13.3396 29.1667 13.0245 29.3693 12.6307L30.939 13.5252C30.5789 14.2004 30.0613 14.7349 29.3862 15.1287C28.711 15.5225 27.9628 15.7194 27.1414 15.7194ZM39.7167 15.5H37.5394L34.0794 11.6011V15.5H32.2565V3.68526H34.0794V10.791L37.3537 7.0609H39.5816L35.8684 11.1961L39.7167 15.5ZM46.466 7.0609H48.407L45.1664 15.7701C44.3562 17.953 42.9834 18.9882 41.0481 18.8756V17.1709C41.6219 17.2047 42.0833 17.0809 42.4321 16.7996C42.7809 16.5296 43.0678 16.102 43.2929 15.5169L43.3773 15.3481L39.7991 7.0609H41.7907L44.3056 13.1877L46.466 7.0609ZM55.9009 7.0609H57.7237V15.5H55.9009V14.2848C55.2145 15.2412 54.2299 15.7194 52.9472 15.7194C51.7882 15.7194 50.798 15.2918 49.9766 14.4367C49.1552 13.5703 48.7445 12.5182 48.7445 11.2804C48.7445 10.0315 49.1552 8.97939 49.9766 8.12422C50.798 7.26906 51.7882 6.84148 52.9472 6.84148C54.2299 6.84148 55.2145 7.31407 55.9009 8.25925V7.0609ZM51.3269 13.2214C51.8332 13.7278 52.469 13.981 53.2341 13.981C53.9993 13.981 54.635 13.7278 55.1414 13.2214C55.6477 12.7038 55.9009 12.0568 55.9009 11.2804C55.9009 10.5041 55.6477 9.86268 55.1414 9.35633C54.635 8.83873 53.9993 8.57994 53.2341 8.57994C52.469 8.57994 51.8332 8.83873 51.3269 9.35633C50.8205 9.86268 50.5674 10.5041 50.5674 11.2804C50.5674 12.0568 50.8205 12.7038 51.3269 13.2214ZM61.6713 8.47867C62.1326 7.43222 62.999 6.90899 64.2705 6.90899V8.88374C63.5729 8.83873 62.9653 9.00752 62.4477 9.39009C61.9301 9.76141 61.6713 10.3803 61.6713 11.2467V15.5H59.8484V7.0609H61.6713V8.47867ZM71.9055 3.68526H73.7284V15.5H71.9055V14.2848C71.2191 15.2412 70.2346 15.7194 68.9518 15.7194C67.7929 15.7194 66.8027 15.2918 65.9813 14.4367C65.1599 13.5703 64.7492 12.5182 64.7492 11.2804C64.7492 10.0315 65.1599 8.97939 65.9813 8.12422C66.8027 7.26906 67.7929 6.84148 68.9518 6.84148C70.2346 6.84148 71.2191 7.31407 71.9055 8.25925V3.68526ZM67.3315 13.2214C67.8379 13.7278 68.4736 13.981 69.2388 13.981C70.0039 13.981 70.6397 13.7278 71.146 13.2214C71.6523 12.7038 71.9055 12.0568 71.9055 11.2804C71.9055 10.5041 71.6523 9.86268 71.146 9.35633C70.6397 8.83873 70.0039 8.57994 69.2388 8.57994C68.4736 8.57994 67.8379 8.83873 67.3315 9.35633C66.8252 9.86268 66.572 10.5041 66.572 11.2804C66.572 12.0568 66.8252 12.7038 67.3315 13.2214Z" fill="#333333" fill-opacity="0.95"/>
</svg>
